<?xml version="1.0" standalone="no"?>
<!DOCTYPE svg PUBLIC "-//W3C//DTD SVG 20010904//EN"
 "http://www.w3.org/TR/2001/REC-SVG-20010904/DTD/svg10.dtd">
<svg version="1.0" xmlns="http://www.w3.org/2000/svg"
 width="300.000000pt" height="300.000000pt" viewBox="0 0 300.000000 300.000000"
 preserveAspectRatio="xMidYMid meet">
<metadata>
Created by potrace 1.11, written by Peter Selinger 2001-2013
</metadata>
<g transform="translate(0.000000,300.000000) scale(0.100000,-0.100000)"
fill="#000000" stroke="none">
<path d="M403 2578 l-353 -351 0 -1073 0 -1074 1073 0 1073 0 382 378 382 378
0 739 0 740 -332 0 -333 0 0 305 0 305 -770 2 -770 3 -352 -352z m1887 -856
l0 -587 -208 -208 -207 -207 -595 2 -595 3 -1 585 -1 585 206 207 206 207 598
0 597 1 0 -588z"/>
</g>
</svg>
